<svg width="56" height="56" viewBox="0 0 56 56" fill="none" xmlns="http://www.w3.org/2000/svg">
<g filter="url(#filter0_d_3418_2600)">
<rect x="4" y="2" width="48" height="48" rx="24" fill="white" shape-rendering="crispEdges"/>
<path d="M27.9994 26.1409V34.1409M19.9994 28.0399C19.2564 27.2808 18.6959 26.3626 18.3604 25.3548C18.0249 24.3471 17.9231 23.2761 18.0627 22.2232C18.2024 21.1702 18.5798 20.1629 19.1665 19.2774C19.7531 18.392 20.5335 17.6516 21.4487 17.1124C22.3638 16.5733 23.3897 16.2494 24.4485 16.1655C25.5074 16.0815 26.5714 16.2396 27.5601 16.6277C28.5488 17.0159 29.4362 17.624 30.1551 18.4059C30.874 19.1879 31.4055 20.1231 31.7094 21.1409H33.4994C34.4649 21.1408 35.4048 21.4512 36.1804 22.0263C36.9559 22.6014 37.5259 23.4108 37.8061 24.3347C38.0864 25.2586 38.062 26.2482 37.7367 27.1573C37.4113 28.0663 36.8022 28.8466 35.9994 29.3829" stroke="#F2B517" stroke-width="2" stroke-linecap="round" stroke-linejoin="round"/>
<path d="M24 30.1406L28 26.1406L32 30.1406" stroke="#F2B517" stroke-width="2" stroke-linecap="round" stroke-linejoin="round"/>
</g>
<defs>
<filter id="filter0_d_3418_2600" x="0" y="0" width="56" height="56" filterUnits="userSpaceOnUse" color-interpolation-filters="sRGB">
<feFlood flood-opacity="0" result="BackgroundImageFix"/>
<feColorMatrix in="SourceAlpha" type="matrix" values="0 0 0 0 0 0 0 0 0 0 0 0 0 0 0 0 0 0 127 0" result="hardAlpha"/>
<feOffset dy="2"/>
<feGaussianBlur stdDeviation="2"/>
<feComposite in2="hardAlpha" operator="out"/>
<feColorMatrix type="matrix" values="0 0 0 0 0 0 0 0 0 0 0 0 0 0 0 0 0 0 0.05 0"/>
<feBlend mode="normal" in2="BackgroundImageFix" result="effect1_dropShadow_3418_2600"/>
<feBlend mode="normal" in="SourceGraphic" in2="effect1_dropShadow_3418_2600" result="shape"/>
</filter>
</defs>
</svg>
