<svg width="18" height="18" viewBox="0 0 18 18" fill="none" xmlns="http://www.w3.org/2000/svg">
<path d="M3 12.375V15C3 15.3978 3.15804 15.7794 3.43934 16.0607C3.72064 16.342 4.10218 16.5 4.5 16.5H13.5C13.8978 16.5 14.2794 16.342 14.5607 16.0607C14.842 15.7794 15 15.3978 15 15V12.375M2.25 10.5V9.75C2.25 9.35218 2.40804 8.97064 2.68934 8.68934C2.97064 8.40804 3.35218 8.25 3.75 8.25H14.25C14.6478 8.25 15.0294 8.40804 15.3107 8.68934C15.592 8.97064 15.75 9.35218 15.75 9.75V10.5M9 6V8.25M9 6C9.9465 6 10.5 5.274 10.5 4.03125C10.5 2.7885 9 1.5 9 1.5C9 1.5 7.5 2.7885 7.5 4.03125C7.5 5.274 8.0535 6 9 6Z" stroke="currentColor" stroke-width="1.5" stroke-linecap="round" stroke-linejoin="round"/>
<path d="M2.25 10.5C2.25 11.0967 2.48705 11.669 2.90901 12.091C3.33097 12.5129 3.90326 12.75 4.5 12.75C5.09674 12.75 5.66903 12.5129 6.09099 12.091C6.51295 11.669 6.75 11.0967 6.75 10.5C6.75 11.0967 6.98705 11.669 7.40901 12.091C7.83097 12.5129 8.40326 12.75 9 12.75C9.59674 12.75 10.169 12.5129 10.591 12.091C11.0129 11.669 11.25 11.0967 11.25 10.5C11.25 11.0967 11.4871 11.669 11.909 12.091C12.331 12.5129 12.9033 12.75 13.5 12.75C14.0967 12.75 14.669 12.5129 15.091 12.091C15.5129 11.669 15.75 11.0967 15.75 10.5" stroke="currentColor" stroke-width="1.5" stroke-linecap="round" stroke-linejoin="round"/>
</svg>
