<svg width="16" height="16" viewBox="0 0 16 16" fill="none" xmlns="http://www.w3.org/2000/svg">
<path d="M4.00008 14.6663C3.64646 14.6663 3.30732 14.5259 3.05727 14.2758C2.80722 14.0258 2.66675 13.6866 2.66675 13.333V2.66634C2.66675 2.31272 2.80722 1.97358 3.05727 1.72353C3.30732 1.47349 3.64646 1.33301 4.00008 1.33301H9.33341C9.54445 1.33267 9.75347 1.37408 9.94844 1.45486C10.1434 1.53563 10.3205 1.65418 10.4694 1.80368L12.8614 4.19568C13.0113 4.34468 13.1302 4.52191 13.2112 4.71712C13.2922 4.91233 13.3338 5.12166 13.3334 5.33301V13.333C13.3334 13.6866 13.1929 14.0258 12.9429 14.2758C12.6928 14.5259 12.3537 14.6663 12.0001 14.6663H4.00008Z" stroke="#8E8670" stroke-width="1.33333" stroke-linecap="round" stroke-linejoin="round"/>
<path d="M9.3335 1.33301V4.66634C9.3335 4.84315 9.40373 5.01272 9.52876 5.13775C9.65378 5.26277 9.82335 5.33301 10.0002 5.33301H13.3335M5.3335 8.66634H6.66683M9.3335 8.66634H10.6668M5.3335 11.333H6.66683M9.3335 11.333H10.6668" stroke="#8E8670" stroke-width="1.33333" stroke-linecap="round" stroke-linejoin="round"/>
</svg>
