<svg width="18" height="18" viewBox="0 0 18 18" fill="none" xmlns="http://www.w3.org/2000/svg">
<path d="M12.75 2.25H8.25C6.6 2.25 5.25 3.6 5.25 5.25C3.6 5.25 2.25 6.6 2.25 8.25V12.75C2.25 14.4 3.6 15.75 5.25 15.75H9.75C11.4 15.75 12.75 14.4 12.75 12.75C14.4 12.75 15.75 11.4 15.75 9.75V5.25C15.75 3.6 14.4 2.25 12.75 2.25ZM11.25 12.75C11.25 13.575 10.575 14.25 9.75 14.25H5.25C4.425 14.25 3.75 13.575 3.75 12.75V8.25C3.75 7.425 4.425 6.75 5.25 6.75H9.75C10.575 6.75 11.25 7.425 11.25 8.25V12.75ZM14.25 9.75C14.25 10.575 13.575 11.25 12.75 11.25V8.25C12.75 6.6 11.4 5.25 9.75 5.25H6.75C6.75 4.425 7.425 3.75 8.25 3.75H12.75C13.575 3.75 14.25 4.425 14.25 5.25V9.75Z" fill="#F2B517"/>
</svg>
