<svg width="14" height="15" viewBox="0 0 14 15" fill="none" xmlns="http://www.w3.org/2000/svg">
<path d="M5.33341 6.66699V10.667M8.00008 6.66699V10.667M11.3334 3.33366V12.667C11.3334 13.0206 11.1929 13.3598 10.9429 13.6098C10.6928 13.8598 10.3537 14.0003 10.0001 14.0003H3.33341C2.97979 14.0003 2.64065 13.8598 2.39061 13.6098C2.14056 13.3598 2.00008 13.0206 2.00008 12.667V3.33366M0.666748 3.33366H12.6667M4.00008 3.33366V2.00033C4.00008 1.6467 4.14056 1.30756 4.39061 1.05752C4.64065 0.807468 4.97979 0.666992 5.33341 0.666992H8.00008C8.3537 0.666992 8.69284 0.807468 8.94289 1.05752C9.19294 1.30756 9.33341 1.6467 9.33341 2.00033V3.33366" stroke="#DC2626" stroke-width="1.33333" stroke-linecap="round" stroke-linejoin="round"/>
</svg>
