<svg width="28" height="28" viewBox="0 0 28 28" fill="none" xmlns="http://www.w3.org/2000/svg">
<rect x="0.5" y="0.5" width="27" height="27" rx="3.5" stroke="#DC2626" stroke-opacity="0.6"/>
<g clip-path="url(#clip0_3425_3210)">
<path d="M12.6667 13.4932V17.4932M15.3333 13.4932V17.4932M18.6667 10.1598V19.4932C18.6667 19.8468 18.5262 20.1859 18.2761 20.436C18.0261 20.686 17.687 20.8265 17.3333 20.8265H10.6667C10.313 20.8265 9.97391 20.686 9.72386 20.436C9.47381 20.1859 9.33333 19.8468 9.33333 19.4932V10.1598M8 10.1598H20M11.3333 10.1598V8.8265C11.3333 8.47288 11.4738 8.13374 11.7239 7.88369C11.9739 7.63364 12.313 7.49316 12.6667 7.49316H15.3333C15.687 7.49316 16.0261 7.63364 16.2761 7.88369C16.5262 8.13374 16.6667 8.47288 16.6667 8.8265V10.1598" stroke="#DC2626" stroke-width="1.33333" stroke-linecap="round" stroke-linejoin="round"/>
</g>
<defs>
<clipPath id="clip0_3425_3210">
<rect width="16" height="16" fill="white" transform="translate(6 6)"/>
</clipPath>
</defs>
</svg>
