<svg width="15" height="15" viewBox="0 0 15 15" fill="none" xmlns="http://www.w3.org/2000/svg">
<path d="M9.33337 2.66725L12 5.33391M13.4494 3.87525C13.8018 3.52286 13.9999 3.04489 14 2.54648C14 2.04807 13.8021 1.57005 13.4497 1.21758C13.0973 0.865107 12.6193 0.667055 12.1209 0.666992C11.6225 0.66693 11.1445 0.864862 10.792 1.21725L1.8947 10.1166C1.73992 10.2709 1.62545 10.4609 1.56137 10.6699L0.680704 13.5712C0.663475 13.6289 0.662173 13.6901 0.676938 13.7485C0.691704 13.8068 0.721985 13.8601 0.764569 13.9026C0.807153 13.9451 0.860451 13.9753 0.91881 13.99C0.977169 14.0046 1.03841 14.0032 1.09604 13.9859L3.99804 13.1059C4.20682 13.0424 4.39682 12.9286 4.55137 12.7746L13.4494 3.87525Z" stroke="#8E8670" stroke-width="1.33333" stroke-linecap="round" stroke-linejoin="round"/>
</svg>
