<svg width="43" height="36" viewBox="0 0 43 36" fill="none" xmlns="http://www.w3.org/2000/svg">
<path fill-rule="evenodd" clip-rule="evenodd" d="M0 4.33333C0 1.9401 1.9401 0 4.33333 0H38.3333C40.7266 0 42.6667 1.9401 42.6667 4.33333V31C42.6667 33.3932 40.7266 35.3333 38.3333 35.3333H4.33333C1.9401 35.3333 0 33.3932 0 31V4.33333ZM4.33333 2C3.04467 2 2 3.04467 2 4.33333V31C2 32.2887 3.04467 33.3333 4.33333 33.3333H38.3333C39.622 33.3333 40.6667 32.2887 40.6667 31V4.33333C40.6667 3.04467 39.622 2 38.3333 2H4.33333Z" fill="#5F5A4C"/>
<circle cx="10" cy="9.33333" r="4.33333" fill="#5F5A4C"/>
<path d="M5.66675 27.667V25.6907C5.66675 25.2487 5.84234 24.8247 6.1549 24.5122L11.543 19.1241C12.1721 18.495 13.1844 18.4709 13.8427 19.0693L15.174 20.2796C15.8256 20.872 16.8255 20.8552 17.4569 20.2414L27.1551 10.8125C27.8085 10.1773 28.851 10.1846 29.4954 10.829L37.1786 18.5122C37.4912 18.8247 37.6667 19.2487 37.6667 19.6907V27.667C37.6667 28.5875 36.9206 29.3337 36.0001 29.3337H7.33341C6.41294 29.3337 5.66675 28.5875 5.66675 27.667Z" fill="#5F5A4C"/>
</svg>
