<svg width="19" height="17" viewBox="0 0 19 17" fill="none" xmlns="http://www.w3.org/2000/svg">
<path fill-rule="evenodd" clip-rule="evenodd" d="M18.0001 8.18214H6.54565H18.0001ZM18.0001 14.7276H6.54565H18.0001ZM18.0001 1.63672H6.54565H18.0001Z" fill="#8E8670"/>
<path d="M18.0001 8.18214H6.54565M18.0001 14.7276H6.54565M18.0001 1.63672H6.54565" stroke="currentColor" stroke-width="1.5" stroke-linecap="round" stroke-linejoin="round"/>
<path fill-rule="evenodd" clip-rule="evenodd" d="M1.63472 3.27271C2.4529 3.27271 3.27108 2.45453 3.27108 1.63636C3.27108 0.818178 2.4529 0 1.63472 0C0.816542 0 0 0.818178 0 1.63636C0 2.45453 0.816542 3.27271 1.63472 3.27271ZM1.63472 9.81814C2.4529 9.81814 3.27108 8.99996 3.27108 8.18178C3.27108 7.3636 2.4529 6.54543 1.63472 6.54543C0.816542 6.54543 0 7.3636 0 8.18178C0 8.99996 0.816542 9.81814 1.63472 9.81814ZM1.63472 16.3636C2.4529 16.3636 3.27108 15.5454 3.27108 14.7272C3.27108 13.909 2.4529 13.0909 1.63472 13.0909C0.816542 13.0909 0 13.909 0 14.7272C0 15.5454 0.816542 16.3636 1.63472 16.3636Z" fill="#8E8670"/>
</svg>
