<svg width="61" height="60" viewBox="0 0 61 60" fill="none" xmlns="http://www.w3.org/2000/svg">
<g filter="url(#filter0_d_3413_2455)">
<path d="M4 26C4 12.7452 14.7452 2 28 2H33C46.2548 2 57 12.7452 57 26V30C57 43.2548 46.2548 54 33 54H28C14.7452 54 4 43.2548 4 30V26Z" fill="white" shape-rendering="crispEdges"/>
<g clip-path="url(#clip0_3413_2455)">
<path d="M23.5 17.0615H37.5C38.6038 17.0615 39.5 17.9577 39.5 19.0615V33.0615C39.5 34.1654 38.6038 35.0615 37.5 35.0615H23.5C22.3962 35.0615 21.5 34.1654 21.5 33.0615V19.0615C21.5 17.9577 22.3962 17.0615 23.5 17.0615V17.0615" stroke="#F2B517" stroke-width="2" stroke-linecap="round" stroke-linejoin="round"/>
<path d="M25.5 23.0615C25.5 24.1654 26.3962 25.0615 27.5 25.0615C28.6038 25.0615 29.5 24.1654 29.5 23.0615C29.5 21.9577 28.6038 21.0615 27.5 21.0615C26.3962 21.0615 25.5 21.9577 25.5 23.0615V23.0615" stroke="#F2B517" stroke-width="2" stroke-linecap="round" stroke-linejoin="round"/>
<path d="M39.5 29.0612L36.414 25.9752C35.633 25.1945 34.367 25.1945 33.586 25.9752L24.5 35.0612" stroke="#F2B517" stroke-width="2" stroke-linecap="round" stroke-linejoin="round"/>
</g>
</g>
<defs>
<filter id="filter0_d_3413_2455" x="0" y="0" width="61" height="60" filterUnits="userSpaceOnUse" color-interpolation-filters="sRGB">
<feFlood flood-opacity="0" result="BackgroundImageFix"/>
<feColorMatrix in="SourceAlpha" type="matrix" values="0 0 0 0 0 0 0 0 0 0 0 0 0 0 0 0 0 0 127 0" result="hardAlpha"/>
<feOffset dy="2"/>
<feGaussianBlur stdDeviation="2"/>
<feComposite in2="hardAlpha" operator="out"/>
<feColorMatrix type="matrix" values="0 0 0 0 0 0 0 0 0 0 0 0 0 0 0 0 0 0 0.05 0"/>
<feBlend mode="normal" in2="BackgroundImageFix" result="effect1_dropShadow_3413_2455"/>
<feBlend mode="normal" in="SourceGraphic" in2="effect1_dropShadow_3413_2455" result="shape"/>
</filter>
<clipPath id="clip0_3413_2455">
<rect width="24" height="24" fill="white" transform="translate(18.5 16)"/>
</clipPath>
</defs>
</svg>
