<svg width="15" height="16" viewBox="0 0 15 16" fill="none" xmlns="http://www.w3.org/2000/svg">
<path d="M11.6604 6.93945H3.0687C2.39083 6.93945 1.84131 7.44197 1.84131 8.06185V11.9903C1.84131 12.6101 2.39083 13.1127 3.0687 13.1127H11.6604C12.3383 13.1127 12.8878 12.6101 12.8878 11.9903V8.06185C12.8878 7.44197 12.3383 6.93945 11.6604 6.93945Z" stroke="#8E8670" stroke-width="1.1225" stroke-linecap="round" stroke-linejoin="round"/>
<path d="M4.29614 6.93947V4.69467C4.29614 3.95047 4.61943 3.23676 5.19488 2.71053C5.77033 2.1843 6.55081 1.88867 7.36462 1.88867C8.17843 1.88867 8.95891 2.1843 9.53436 2.71053C10.1098 3.23676 10.4331 3.95047 10.4331 4.69467V6.93947" stroke="#8E8670" stroke-width="1.1225" stroke-linecap="round" stroke-linejoin="round"/>
</svg>
