<svg width="18" height="18" viewBox="0 0 18 18" fill="none" xmlns="http://www.w3.org/2000/svg">
<path d="M12 15.7497V14.2497C12 12.594 10.6557 11.2497 9 11.2497H4.5C2.84425 11.2497 1.5 12.594 1.5 14.2497V15.7497M12 2.3457C13.3232 2.68873 14.2471 3.8828 14.2471 5.2497C14.2471 6.6166 13.3232 7.81068 12 8.1537M16.5 15.7497V14.2497C16.499 12.8825 15.5737 11.689 14.25 11.3472" stroke="currentColor" stroke-width="1.5" stroke-linecap="round" stroke-linejoin="round"/>
<path d="M3.75 5.25C3.75 6.90575 5.09425 8.25 6.75 8.25C8.40575 8.25 9.75 6.90575 9.75 5.25C9.75 3.59425 8.40575 2.25 6.75 2.25C5.09425 2.25 3.75 3.59425 3.75 5.25V5.25" stroke="currentColor" stroke-width="1.5" stroke-linecap="round" stroke-linejoin="round"/>
</svg>
