<svg width="18" height="18" viewBox="0 0 18 18" fill="none" xmlns="http://www.w3.org/2000/svg">
<path d="M7.25339 3.10163C7.33902 2.20076 8.09559 1.5127 9.00051 1.5127C9.90544 1.5127 10.662 2.20076 10.7476 3.10163C10.798 3.67158 11.1231 4.18118 11.6187 4.46713C12.1143 4.75309 12.7182 4.77949 13.2369 4.53788C14.0591 4.16459 15.0303 4.4761 15.482 5.25795C15.9337 6.03981 15.7185 7.03681 14.9844 7.56263C14.5162 7.89116 14.2374 8.42726 14.2374 8.99925C14.2374 9.57124 14.5162 10.1073 14.9844 10.4359C15.7185 10.9617 15.9337 11.9587 15.482 12.7405C15.0303 13.5224 14.0591 13.8339 13.2369 13.4606C12.7182 13.219 12.1143 13.2454 11.6187 13.5314C11.1231 13.8173 10.798 14.3269 10.7476 14.8969C10.662 15.7977 9.90544 16.4858 9.00051 16.4858C8.09559 16.4858 7.33902 15.7977 7.25339 14.8969C7.20307 14.3267 6.87788 13.8169 6.38206 13.5309C5.88625 13.2449 5.28213 13.2187 4.76339 13.4606C3.9412 13.8339 2.96995 13.5224 2.51825 12.7405C2.06655 11.9587 2.28183 10.9617 3.01589 10.4359C3.48411 10.1073 3.76285 9.57124 3.76285 8.99925C3.76285 8.42726 3.48411 7.89116 3.01589 7.56263C2.2829 7.03657 2.06819 6.04046 2.51938 5.25916C2.97057 4.47786 3.94065 4.16595 4.76264 4.53788C5.28131 4.77949 5.88519 4.75309 6.38079 4.46713C6.87639 4.18118 7.20148 3.67158 7.25189 3.10163" stroke="currentColor" stroke-width="1.5" stroke-linecap="round" stroke-linejoin="round"/>
<path d="M6.75 9C6.75 10.2418 7.75819 11.25 9 11.25C10.2418 11.25 11.25 10.2418 11.25 9C11.25 7.75819 10.2418 6.75 9 6.75C7.75819 6.75 6.75 7.75819 6.75 9V9" stroke="currentColor" stroke-width="1.5" stroke-linecap="round" stroke-linejoin="round"/>
</svg>
